<?xml version="1.0" encoding="utf-8"?>
<!-- Generator: Adobe Illustrator 16.0.0, SVG Export Plug-In . SVG Version: 6.00 Build 0)  -->
<!DOCTYPE svg PUBLIC "-//W3C//DTD SVG 1.1//EN" "http://www.w3.org/Graphics/SVG/1.1/DTD/svg11.dtd">
<svg version="1.1" id="Layer_1" xmlns="http://www.w3.org/2000/svg" xmlns:xlink="http://www.w3.org/1999/xlink" x="0px" y="0px"
	 width="350px" height="100px" viewBox="0 0 350 100" enable-background="new 0 0 350 100" xml:space="preserve">
<g>
	<g>
		<path fill="none" d="M305.08,76.4c0,3.519,0,7.038,0,10.56c-77.36,0-154.72,0-232.08,0c0.236-0.138,0.468-0.281,0.708-0.412
			c3.556-1.944,7.181-3.775,10.654-5.857c5.248-3.146,10.105-6.82,14.189-11.43c2.406-2.715,4.394-5.69,5.58-9.15
			c0.103-0.302,0.316-0.643,0.253-0.912c-0.315-1.339-0.707-2.659-1.071-3.986c-0.062,0.015-0.125,0.028-0.188,0.042
			c-0.232,2.929-1.214,5.605-2.707,8.11c-2.294,3.849-5.4,6.974-8.83,9.793c-5.809,4.775-12.279,8.492-19.017,11.771
			c-1.125,0.547-2.263,1.067-3.395,1.601c0.244,0.146,0.474,0.171,0.705,0.196c0.72,0.078,1.44,0.157,2.16,0.235
			c-8.64,0-17.28,0-25.92,0c0-14.96,0-29.92,0-44.88c0.079,0.194,0.173,0.384,0.235,0.584c0.314,1.021,0.62,2.043,0.928,3.065
			c0.222-0.761,0.312-1.492,0.471-2.208c0.816-3.701,2.728-6.831,5.125-9.696c3.075-3.676,6.75-6.675,10.668-9.396
			c5.428-3.769,11.229-6.875,17.229-9.62c0.198-0.09,0.391-0.194,0.585-0.292c-0.236-0.13-0.431-0.14-0.624-0.161
			c-0.7-0.077-1.398-0.157-2.098-0.236c75.48,0,150.959,0,226.44,0c0,20.368,0,40.725,0,61.08c-0.346-1.272-1.35-1.781-2.479-2.156
			c-0.585-0.194-1.195-0.354-1.725-0.651c-0.273-0.154-0.582-0.608-0.538-0.871c0.052-0.313,0.417-0.658,0.733-0.82
			c0.293-0.151,0.699-0.09,1.057-0.105c0.53-0.024,0.869,0.124,0.827,0.771c-0.021,0.31,0.013,0.729,0.487,0.765
			c0.369,0.027,0.741,0.006,1.116,0.006c0-0.982,0-1.878,0-2.781c-1.479-0.513-2.96-0.764-4.473-0.261
			c-1.281,0.426-2.019,1.4-2.068,2.649c-0.048,1.227,0.542,2.077,1.871,2.622c0.718,0.294,1.464,0.515,2.186,0.798
			c0.453,0.178,0.789,0.471,0.732,1.033c-0.058,0.573-0.437,0.868-0.937,0.938c-0.545,0.076-1.106,0.029-1.661,0.035
			c-0.411,0.006-0.519-0.219-0.539-0.603c-0.052-0.948-0.122-0.994-1.076-0.988c-0.174,0.001-0.348,0.018-0.576,0.029
			c0,0.811,0.022,1.586-0.011,2.358c-0.016,0.367,0.146,0.509,0.455,0.566c0.665,0.125,1.327,0.3,1.999,0.356
			c2.411,0.206,3.502-0.402,4.562-2.47C305.031,76.407,305.061,76.406,305.08,76.4z M292.222,51.654c0-0.85,0.018-1.629-0.005-2.407
			c-0.023-0.807-0.316-1.149-1.112-1.326c-0.656-0.146-1.318-0.265-2.003-0.4c0-0.215,0-0.393,0-0.572
			c0.006-3.18-0.037-6.36,0.037-9.539c0.042-1.776,1.294-3.044,3.049-3.348c2.076-0.36,3.637,0.698,3.991,2.73
			c0.081,0.47,0.114,0.954,0.115,1.432c0.009,4.26,0.005,8.52,0.005,12.779c0,0.212,0,0.424,0,0.646c2.8,0,5.529,0,8.249,0
			c0.022-0.066,0.045-0.103,0.045-0.139c0.004-0.7,0.008-1.399,0.007-2.1c-0.002-0.995-0.311-1.366-1.288-1.549
			c-0.602-0.112-1.205-0.217-1.831-0.329c0-0.226,0-0.404,0-0.583c-0.006-3.22,0.056-6.441-0.034-9.658
			c-0.123-4.349-2.495-6.976-6.643-7.266c-3.135-0.219-5.793,0.778-7.427,3.702c-0.023,0.042-0.082,0.065-0.132,0.103
			c-0.065-0.163-0.116-0.314-0.186-0.458c-0.927-1.928-2.318-3.221-4.563-3.386c-1.601-0.118-3.052,0.303-4.359,1.195
			c-0.652,0.445-1.237,0.988-1.89,1.517c-0.086-0.396-0.167-0.802-0.264-1.204c-0.206-0.86-0.597-1.171-1.475-1.174
			c-1.18-0.004-2.359-0.001-3.54-0.001c-0.874,0-1.748,0-2.676,0c0,0.814-0.004,1.571,0.001,2.327
			c0.006,0.911,0.339,1.315,1.229,1.485c0.51,0.098,1.029,0.15,1.528,0.285c0.163,0.044,0.39,0.282,0.391,0.433
			c0.021,4.1,0.016,8.2,0.021,12.299c0,0.29-0.074,0.422-0.39,0.465c-0.612,0.083-1.22,0.207-1.821,0.346
			c-0.516,0.119-0.87,0.453-0.89,0.995c-0.032,0.892-0.009,1.786-0.009,2.698c3.817,0,7.586,0,11.401,0
			c0-0.9,0.028-1.776-0.01-2.649c-0.025-0.586-0.393-0.941-0.971-1.059c-0.699-0.142-1.399-0.278-2.093-0.415
			c-0.018-0.091-0.038-0.149-0.038-0.206c-0.003-3.64-0.005-7.28,0.003-10.919c0.001-0.165,0.054-0.371,0.159-0.488
			c0.661-0.734,1.402-1.365,2.359-1.691c2.34-0.795,4.31,0.357,4.648,2.739c0.064,0.453,0.075,0.917,0.075,1.375
			c0.006,4.22,0.004,8.439,0.004,12.659c0,0.215,0,0.43,0,0.656C286.693,51.654,289.427,51.654,292.222,51.654z M137.379,30.327
			c-0.023,0.125-0.037,0.163-0.037,0.201c-0.002,0.72-0.006,1.439-0.003,2.159c0.003,0.883,0.33,1.28,1.192,1.445
			c0.47,0.09,0.939,0.208,1.414,0.24c0.443,0.029,0.558,0.202,0.557,0.632c-0.013,6.317-0.012,12.635-0.002,18.953
			c0,0.376-0.064,0.594-0.496,0.631c-0.475,0.04-0.944,0.157-1.417,0.231c-0.701,0.109-1.178,0.453-1.215,1.048
			c-0.057,0.908-0.015,1.822-0.015,2.736c3.843,0,7.631,0,11.459,0c0-0.87,0.029-1.707-0.009-2.541
			c-0.031-0.682-0.375-1.042-1.06-1.192c-0.545-0.12-1.095-0.232-1.648-0.293c-0.38-0.042-0.44-0.227-0.437-0.555
			c0.014-1.179,0.004-2.358,0.008-3.538c0-0.123,0.04-0.245,0.041-0.253c0.968,0.491,1.87,1.155,2.877,1.424
			c4.055,1.081,8.052-0.361,10.052-4.365c2.161-4.327,2.071-8.799,0.123-13.188c-0.868-1.955-2.386-3.375-4.521-3.898
			c-3.118-0.764-5.841,0.068-8.147,2.284c-0.221,0.212-0.396,0.472-0.677,0.813c-0.173-0.807-0.301-1.391-0.424-1.976
			c-0.128-0.614-0.542-0.976-1.126-0.985C141.713,30.307,139.558,30.327,137.379,30.327z M115.893,42.68
			c0,2.455,0.013,4.831-0.012,7.208c-0.005,0.447,0.158,0.605,0.561,0.736c3.065,0.997,6.198,1.538,9.427,1.394
			c4.751-0.212,9.064-2.908,9.722-8.738c0.399-3.543-1.095-6.378-4.284-7.878c-0.918-0.432-1.876-0.783-2.825-1.146
			c-1.562-0.596-3.15-1.125-4.69-1.772c-0.943-0.396-1.675-1.1-1.956-2.139c-0.526-1.951,0.786-3.942,2.931-4.32
			c2.01-0.354,4.017-0.189,5.996,0.322c0.345,0.089,0.472,0.267,0.501,0.616c0.078,0.915,0.192,1.827,0.301,2.739
			c0.053,0.442,0.222,0.895,0.699,0.93c0.883,0.066,1.775,0.019,2.679,0.019c0-2.483,0.006-4.902-0.013-7.32
			c-0.001-0.165-0.147-0.425-0.288-0.479c-3.445-1.328-7.005-2.034-10.676-1.375c-3.807,0.684-7.006,3.277-7.451,7.586
			c-0.365,3.529,0.896,6.703,4.557,8.271c1.261,0.54,2.59,0.919,3.881,1.391c1.176,0.429,2.37,0.827,3.506,1.344
			c0.878,0.4,1.556,1.102,1.735,2.095c0.405,2.245-0.334,4.505-3.151,5.052c-2.336,0.453-4.696,0.208-7.021-0.249
			c-0.158-0.031-0.359-0.298-0.385-0.477c-0.133-0.928-0.205-1.865-0.32-2.796c-0.095-0.771-0.375-1.01-1.131-1.014
			C117.446,42.677,116.707,42.68,115.893,42.68z M244.138,34.46c0,0.281,0,0.5,0,0.718c0,2.739-0.018,5.479,0.011,8.218
			c0.01,0.915,0.065,1.843,0.229,2.741c0.484,2.635,1.819,4.694,4.476,5.503c2.993,0.912,5.766,0.321,8.177-1.737
			c0.285-0.244,0.562-0.499,0.903-0.801c0.12,0.508,0.224,0.948,0.328,1.388c0.213,0.899,0.579,1.188,1.513,1.189
			c1.84,0.001,3.68,0.001,5.52-0.001c0.191,0,0.383-0.019,0.607-0.03c0-0.903,0.022-1.761-0.007-2.617
			c-0.021-0.589-0.368-0.958-0.945-1.083c-0.526-0.114-1.054-0.253-1.588-0.294c-0.515-0.04-0.585-0.282-0.584-0.732
			c0.015-5.299,0.01-10.598,0.01-15.897c0-0.216,0-0.432,0-0.667c-2.8,0-5.545,0-8.293,0c-0.016,0.094-0.033,0.151-0.033,0.208
			c-0.002,0.7-0.017,1.4,0.001,2.1c0.023,0.928,0.342,1.291,1.254,1.467c0.604,0.117,1.209,0.223,1.804,0.332
			c0.025,0.093,0.054,0.149,0.054,0.206c0.003,3.599,0.007,7.199-0.005,10.798c-0.001,0.173-0.103,0.387-0.228,0.512
			c-1.091,1.095-2.391,1.794-3.942,1.958c-2.168,0.229-3.577-0.771-3.97-2.821c-0.085-0.448-0.121-0.913-0.122-1.37
			c-0.009-4.26-0.006-8.519-0.005-12.778c0-0.209,0-0.418,0-0.611c-2.819,0-5.548,0-8.302,0c0,0.797-0.003,1.556,0.001,2.313
			c0.005,0.914,0.338,1.301,1.242,1.459C242.85,34.239,243.457,34.343,244.138,34.46z M168.243,41.667c0.318,0,0.553,0,0.788,0
			c4.08,0,8.16,0.001,12.24,0c0.943,0,1.222-0.226,1.285-1.18c0.049-0.733,0.071-1.481-0.009-2.209
			c-0.347-3.139-1.678-5.7-4.544-7.247c-1.91-1.031-3.991-1.22-6.117-0.951c-3.535,0.447-6.195,2.208-7.694,5.461
			c-1.609,3.491-1.508,7.082-0.03,10.582c1.281,3.032,3.625,4.935,6.861,5.606c2.682,0.556,5.335,0.292,7.89-0.69
			c1.377-0.529,2.552-1.387,3.511-2.572c-0.415-0.521-0.825-1.036-1.236-1.55c-0.732-0.916-1.235-0.992-2.271-0.472
			c-0.941,0.474-1.883,1.018-2.891,1.278c-2.256,0.584-4.423,0.407-6.139-1.427C168.704,45.03,168.402,43.424,168.243,41.667z
			 M203.428,48.46c-0.466-0.601-0.929-1.201-1.396-1.797c-0.478-0.612-1.207-0.719-1.846-0.27c-0.326,0.229-0.643,0.474-0.97,0.702
			c-2.376,1.655-6.627,1.397-7.917-2.44c-0.81-2.409-0.838-4.837-0.065-7.236c0.649-2.017,2.063-3.279,4.226-3.44
			c0.938-0.07,1.897,0.15,2.848,0.236c0.405,0.037,0.562,0.238,0.584,0.659c0.041,0.776,0.146,1.55,0.242,2.322
			c0.056,0.445,0.249,0.868,0.735,0.898c0.868,0.054,1.742,0.015,2.679,0.015c0-2.108,0.007-4.146-0.013-6.182
			c-0.001-0.172-0.136-0.449-0.273-0.499c-2.641-0.959-5.314-1.748-8.182-1.34c-3.473,0.494-6.121,2.19-7.543,5.454
			c-1.622,3.725-1.575,7.52,0.122,11.204c1.186,2.573,3.201,4.33,6.017,4.972c2.435,0.556,4.843,0.31,7.173-0.588
			C201.275,50.58,202.448,49.676,203.428,48.46z M205.174,31.03c0,0.716-0.017,1.355,0.004,1.993
			c0.025,0.822,0.414,1.189,1.246,1.202c0.634,0.01,1.267,0.002,1.954,0.002c0,0.279,0,0.495,0,0.711
			c0,3.639-0.004,7.278,0.005,10.917c0.002,0.538,0.038,1.079,0.11,1.612c0.307,2.273,1.755,3.927,4.009,4.351
			c1.039,0.195,2.151,0.186,3.208,0.064c1.503-0.173,2.87-0.784,4.076-1.788c-0.456-0.74-0.894-1.451-1.331-2.161
			c-0.563-0.913-0.738-0.99-1.666-0.458c-1.374,0.789-3.264,0.402-3.219-1.935c0.067-3.538,0.018-7.078,0.018-10.617
			c0-0.213,0-0.426,0-0.708c1.9,0,3.728,0,5.556,0c0-1.259,0-2.449,0-3.705c-1.863,0-3.689,0-5.579,0c0-2.275,0-4.484,0-6.725
			c-0.961,0-1.859-0.034-2.753,0.011c-0.711,0.036-1.003,0.366-1.135,1.083c-0.317,1.727-0.649,3.452-0.95,5.182
			c-0.061,0.347-0.216,0.458-0.541,0.502C207.199,30.7,206.218,30.866,205.174,31.03z M222.582,51.651c3.841,0,7.612,0,11.439,0
			c0-0.763,0.002-1.497,0-2.231c-0.003-0.997-0.317-1.37-1.29-1.544c-0.602-0.108-1.203-0.221-1.8-0.331
			c-0.014-0.135-0.028-0.214-0.028-0.292c-0.001-2.839-0.001-5.678,0-8.517c0-0.12-0.023-0.256,0.025-0.356
			c0.713-1.466,1.567-2.796,3.271-3.271c1.072-0.299,2.136-0.149,3.202,0.061c0.883,0.174,1.177-0.045,1.317-0.906
			c0.151-0.925,0.326-1.848,0.476-2.773c0.157-0.979,0.152-1.032-0.843-1.306c-2.251-0.62-4.239-0.078-5.895,1.545
			c-0.688,0.674-1.252,1.473-1.871,2.214c-0.126-0.855-0.242-1.737-0.388-2.615c-0.101-0.602-0.46-0.991-1.09-0.995
			c-2.156-0.016-4.312-0.006-6.537-0.006c0,0.825-0.013,1.62,0.004,2.415c0.019,0.849,0.356,1.227,1.197,1.382
			c0.51,0.094,1.029,0.152,1.526,0.291c0.16,0.044,0.375,0.292,0.375,0.447c0.021,4.098,0.015,8.197,0.021,12.295
			c0.001,0.29-0.076,0.424-0.392,0.462c-0.554,0.068-1.103,0.185-1.648,0.3c-0.705,0.15-1.033,0.482-1.064,1.175
			C222.555,49.929,222.582,50.767,222.582,51.651z M53.86,82.005c0.666,0.339,1.236,0.668,1.84,0.919
			c0.239,0.1,0.59,0.116,0.822,0.016c5.248-2.272,10.342-4.848,15.218-7.842c5.384-3.306,10.462-7,14.715-11.726
			c2.178-2.421,4.036-5.058,5.312-8.073c1.625-3.841,2-7.779,0.904-11.828c-0.056-0.206-0.112-0.48-0.262-0.579
			c-0.772-0.505-1.575-0.963-2.368-1.438c0.026,0.395,0.132,0.69,0.246,0.983c0.633,1.634,0.993,3.33,1.051,5.077
			c0.123,3.701-1.056,7.031-2.994,10.125c-2.714,4.336-6.399,7.748-10.418,10.824c-5.544,4.245-11.59,7.663-17.866,10.688
			C58.049,80.12,56.003,81.021,53.86,82.005z M60.423,59.525c0.036-0.034,0.072-0.069,0.108-0.104
			c-0.063-0.18-0.119-0.361-0.19-0.537c-0.637-1.587-1.031-3.233-1.131-4.938c-0.173-2.939,0.486-5.71,1.772-8.343
			c2.03-4.157,5.08-7.497,8.532-10.484c6.381-5.522,13.63-9.683,21.198-13.323c1.938-0.933,3.909-1.8,5.937-2.73
			c-0.628-0.321-1.197-0.654-1.801-0.902c-0.257-0.106-0.632-0.136-0.878-0.029c-5.337,2.32-10.523,4.939-15.474,8.004
			c-5.458,3.38-10.598,7.162-14.846,12.034c-2.288,2.625-4.193,5.489-5.356,8.803c-1.224,3.489-1.409,7.021-0.432,10.599
			c0.051,0.187,0.105,0.435,0.242,0.524C58.863,58.597,59.647,59.055,60.423,59.525z M86.077,39.623
			c0.121,0.332,0.197,0.546,0.277,0.758c0.991,2.614,1.301,5.298,0.847,8.066c-0.55,3.353-2.062,6.274-4.045,8.976
			c-2.858,3.893-6.438,7.039-10.309,9.874c-6.785,4.97-14.179,8.853-21.869,12.2c-0.185,0.081-0.366,0.17-0.624,0.29
			c0.512,0.35,0.946,0.603,1.33,0.918c0.392,0.322,0.748,0.335,1.191,0.111c3.918-1.978,7.9-3.837,11.75-5.937
			c5.221-2.848,10.121-6.196,14.531-10.214c3.316-3.022,6.244-6.36,8.218-10.439c2.006-4.145,2.563-8.448,1.328-12.927
			c-0.068-0.246-0.204-0.56-0.403-0.666C87.619,40.271,86.896,39.987,86.077,39.623z M100.167,21.284
			c-0.531-0.36-1.005-0.656-1.449-0.992c-0.323-0.244-0.604-0.258-0.97-0.08c-2.727,1.327-5.498,2.567-8.188,3.962
			c-6.546,3.396-12.767,7.292-18.246,12.278c-3.274,2.979-6.157,6.28-8.116,10.295c-2.036,4.174-2.631,8.511-1.364,13.036
			c0.052,0.187,0.094,0.461,0.226,0.527c0.731,0.37,1.489,0.688,2.371,1.084c-0.13-0.356-0.195-0.541-0.264-0.724
			c-0.897-2.378-1.227-4.828-0.934-7.357c0.376-3.256,1.707-6.134,3.529-8.808c2.747-4.031,6.299-7.27,10.165-10.182
			c6.251-4.71,13.082-8.429,20.181-11.678C98.101,22.193,99.102,21.758,100.167,21.284z M103.117,23.686
			c-0.405-0.354-0.796-0.663-1.146-1.013c-0.321-0.321-0.617-0.317-1.005-0.121c-3.47,1.757-7.005,3.396-10.411,5.27
			c-6.396,3.518-12.408,7.593-17.524,12.865c-2.605,2.685-4.843,5.636-6.332,9.1c-1.619,3.767-2.078,7.642-1.033,11.646
			c0.05,0.19,0.169,0.45,0.323,0.512c0.641,0.254,1.308,0.445,2.063,0.691c-0.082-0.245-0.13-0.387-0.177-0.529
			c-0.508-1.568-0.798-3.173-0.808-4.824c-0.019-3.117,0.886-5.981,2.388-8.677c2.284-4.098,5.496-7.394,9.069-10.362
			c5.361-4.454,11.303-8.006,17.5-11.146C98.335,25.925,100.694,24.848,103.117,23.686z M82.472,38.411
			c0.097,0.294,0.177,0.47,0.213,0.654c0.256,1.309,0.629,2.61,0.73,3.932c0.271,3.544-0.786,6.786-2.543,9.82
			c-2.391,4.129-5.704,7.438-9.372,10.416c-6.006,4.875-12.675,8.679-19.617,12.03c-1.466,0.708-2.953,1.372-4.504,2.09
			c0.431,0.381,0.828,0.706,1.194,1.064c0.284,0.277,0.545,0.303,0.904,0.129c1.508-0.731,3.041-1.41,4.542-2.156
			c8.044-3.998,15.723-8.557,22.269-14.803c2.982-2.846,5.563-6.011,7.309-9.788c1.802-3.899,2.344-7.937,1.283-12.138
			c-0.053-0.209-0.174-0.5-0.338-0.566C83.902,38.838,83.233,38.655,82.472,38.411z M58.066,83.917
			c0.04,0.035,0.077,0.091,0.128,0.109c0.674,0.251,1.342,0.521,2.029,0.728c0.239,0.072,0.56,0.058,0.788-0.044
			c7.069-3.13,13.867-6.753,20.155-11.275c4.302-3.095,8.294-6.53,11.453-10.834c3.127-4.262,5.05-8.906,4.516-14.336
			c-0.131-1.331-0.446-2.487-1.688-3.217c-0.441-0.26-0.825-0.616-1.235-0.928c-0.021,0.277,0.042,0.462,0.11,0.647
			c0.667,1.84,1.031,3.741,0.969,5.694c-0.107,3.381-1.245,6.443-3.032,9.284c-2.856,4.543-6.755,8.073-11.001,11.253
			c-5.299,3.969-11.039,7.204-16.994,10.065C62.217,82.048,60.137,82.966,58.066,83.917z M56.221,56.855
			c0.044-0.031,0.089-0.062,0.133-0.093c-0.07-0.218-0.161-0.431-0.206-0.653c-0.304-1.501-0.768-2.993-0.861-4.508
			c-0.234-3.827,1.061-7.26,3.087-10.447c2.643-4.158,6.177-7.472,10.045-10.447c6.209-4.775,13.03-8.517,20.124-11.787
			c1.282-0.591,2.577-1.153,3.978-1.779c-0.313-0.128-0.537-0.198-0.741-0.307c-1.187-0.633-2.269-0.566-3.534,0.029
			c-8.726,4.108-17.128,8.725-24.393,15.166c-3.215,2.851-6.081,6.017-8.119,9.848c-2.09,3.93-2.992,8.062-2.072,12.493
			c0.032,0.152,0.048,0.351,0.149,0.439C54.604,55.505,55.416,56.177,56.221,56.855z M98.991,48.384
			c-0.064,0.034-0.129,0.069-0.193,0.103c0.026,0.163,0.046,0.327,0.08,0.487c0.402,1.959,0.442,3.923,0.092,5.894
			c-0.583,3.281-2.082,6.146-4.042,8.789c-2.802,3.777-6.288,6.853-10.054,9.622c-6.567,4.828-13.726,8.609-21.168,11.881
			c-0.222,0.098-0.44,0.206-0.818,0.383c0.707,0.168,1.224,0.298,1.744,0.412c0.428,0.095,0.858,0.191,1.292,0.247
			c0.163,0.021,0.353-0.043,0.51-0.114c5.898-2.686,11.612-5.709,16.98-9.354c4.582-3.11,8.87-6.562,12.355-10.91
			c2.927-3.652,5.054-7.663,5.375-12.443c0.045-0.674,0.235-1.473-0.042-2.005C100.544,50.302,99.71,49.373,98.991,48.384z
			 M51.548,52.595c0.075-0.196,0.112-0.247,0.109-0.297c-0.007-0.159-0.014-0.32-0.046-0.476c-0.543-2.603-0.341-5.164,0.45-7.685
			c1.187-3.784,3.425-6.925,6.091-9.787c3.124-3.354,6.715-6.152,10.515-8.688c5.782-3.86,11.933-7.038,18.292-9.825
			c0.18-0.079,0.354-0.169,0.651-0.312c-0.496-0.125-0.822-0.217-1.152-0.288c-0.527-0.111-1.054-0.234-1.588-0.3
			c-0.279-0.035-0.607-0.036-0.855,0.077c-5.679,2.588-11.188,5.489-16.38,8.965c-4.888,3.272-9.456,6.915-13.121,11.57
			c-2.702,3.432-4.671,7.203-5.087,11.634c-0.078,0.827-0.25,1.777,0.06,2.476C49.949,50.702,50.802,51.571,51.548,52.595z
			 M116.759,66.939c0,3.333,0,6.623,0,9.905c-1.516,0.264-1.592,0.374-1.332,1.893c1.784,0,3.568,0,5.346,0
			c0.185-1.471,0.185-1.471-1.341-1.941c0-1.325,0-2.65,0-3.984c2.135,0,4.226,0,6.337,0c0,1.359,0,2.69,0,4.014
			c-1.527,0.348-1.586,0.435-1.319,1.92c1.785,0,3.572,0,5.45,0c-0.051-0.511,0.05-1.084-0.187-1.416
			c-0.229-0.319-0.807-0.388-1.258-0.577c0-3.238,0-6.529,0-9.81c1.481-0.431,1.638-0.664,1.322-1.897c-1.794,0-3.584,0-5.428,0
			c0.035,0.499-0.09,1.073,0.14,1.372c0.257,0.331,0.838,0.41,1.274,0.598c0,1.27,0,2.561,0,3.834c-2.143,0-4.248,0-6.35,0
			c0-1.326,0-2.602,0-3.838c0.467-0.187,1.068-0.244,1.285-0.562c0.235-0.347,0.113-0.936,0.147-1.423c-1.885,0-3.658,0-5.429,0
			C115.224,66.512,115.224,66.512,116.759,66.939z M225.724,78.741c1.8,0,3.604,0,5.404,0c0.119-1.551,0.119-1.551-1.426-1.938
			c0-0.461,0-0.937,0-1.413c0-0.487,0-0.976,0-1.488c0.72,0,1.34,0.034,1.954-0.01c0.653-0.046,1.322-0.09,1.946-0.269
			c1.981-0.566,2.996-1.93,3.136-4.094c0.113-1.756-0.777-3.354-2.401-3.975c-0.856-0.326-1.813-0.489-2.733-0.531
			c-1.794-0.08-3.595-0.024-5.393-0.021c-0.173,0-0.346,0.021-0.604,0.037c0.061,0.513-0.031,1.091,0.214,1.414
			c0.239,0.316,0.822,0.373,1.273,0.551c0,3.257,0,6.543,0,9.82C225.563,77.164,225.488,77.271,225.724,78.741z M171.52,76.815
			c0-1.384,0.085-2.787-0.029-4.175c-0.079-0.967,0.411-1.386,1.128-1.724c1.463-0.691,2.632,0.048,2.638,1.661
			c0.006,1.84,0.001,3.68,0.001,5.52c0,0.213,0,0.425,0,0.654c1.309,0,2.538,0,3.764,0c0.215-1.542,0.215-1.542-1.36-1.946
			c0-0.202,0.001-0.418,0-0.635c-0.007-1.359,0.025-2.721-0.031-4.078c-0.073-1.767-1.099-2.987-2.66-3.22
			c-1.07-0.159-2.066,0.065-2.946,0.725c-0.147,0.11-0.304,0.208-0.535,0.364c0-1.846,0-3.579,0-5.311c-1.273,0-2.504,0-3.82,0
			c0.039,0.505-0.078,1.084,0.156,1.409c0.23,0.32,0.818,0.384,1.288,0.576c0,3.353,0,6.766,0,10.173
			c-1.521,0.381-1.658,0.584-1.325,1.938c1.709,0,3.419,0,5.125,0C173.09,77.178,173.09,77.178,171.52,76.815z M269.422,76.817
			c0-1.635-0.002-3.233,0.005-4.831c0.001-0.129,0.034-0.281,0.109-0.381c0.502-0.664,1.839-1.079,2.618-0.828
			c0.683,0.219,1.019,0.86,1.022,1.977c0.005,1.419,0.001,2.839,0.001,4.259c0,0.573,0,1.146,0,1.741c1.304,0,2.533,0,3.862,0
			c-0.051-0.519,0.053-1.108-0.19-1.456c-0.219-0.314-0.817-0.362-1.307-0.55c0-1.491,0.047-3.03-0.011-4.565
			c-0.104-2.723-2.416-4.125-4.905-2.995c-0.48,0.218-0.909,0.55-1.242,0.755c-0.279-0.325-0.522-0.877-0.828-0.915
			c-0.959-0.118-1.941-0.043-2.906-0.043c-0.176,1.569-0.176,1.569,1.357,1.943c0,1.968,0,3.939,0,5.904
			c-1.533,0.314-1.573,0.372-1.35,1.904c1.724,0,3.448,0,5.168,0C270.956,77.18,270.956,77.18,269.422,76.817z M198.271,76.812
			c-0.011-0.017-0.029-0.033-0.029-0.05c-0.006-1.399-0.001-2.798-0.018-4.196c-0.021-1.795-0.848-3.164-2.28-3.57
			c-2.021-0.573-3.809-0.034-5.379,1.305c0.489,1.212,0.925,1.576,2.116,0.826c0.051-0.032,0.103-0.063,0.156-0.09
			c0.784-0.379,1.61-0.617,2.395-0.104c0.731,0.479,0.685,1.296,0.657,2.063c-0.001,0.036-0.024,0.071-0.058,0.165
			c-0.194,0-0.409-0.007-0.623,0.001c-1.392,0.053-2.743,0.272-3.942,1.04c-1.475,0.941-1.608,3.091-0.25,4.132
			c0.722,0.554,1.572,0.625,2.452,0.538c1.021-0.102,1.862-0.587,2.486-1.129c0.358,0.367,0.628,0.893,0.979,0.953
			c0.789,0.137,1.618,0.043,2.419,0.043C199.587,77.367,199.527,77.267,198.271,76.812z M238.1,70.304
			c0.487,1.176,0.896,1.558,2.134,0.837c0.463-0.27,1.043-0.414,1.583-0.459c0.826-0.068,1.348,0.351,1.529,1.133
			c0.096,0.416,0.086,0.857,0.13,1.346c-0.314,0-0.551-0.01-0.786,0.001c-1.476,0.067-2.906,0.312-4.132,1.211
			c-0.827,0.607-1.066,1.476-0.896,2.451c0.159,0.91,0.66,1.577,1.571,1.867c1.417,0.449,2.717,0.189,3.906-0.683
			c0.165-0.121,0.327-0.246,0.401-0.302c0.287,0.369,0.497,0.91,0.776,0.948c0.852,0.118,1.73,0.043,2.592,0.043
			c0.129-1.441,0.129-1.441-1.127-1.894c0-0.524,0.01-1.063-0.002-1.601c-0.027-1.178,0.009-2.363-0.118-3.53
			c-0.147-1.347-0.938-2.328-2.242-2.69C241.426,68.427,239.647,68.969,238.1,70.304z M148.028,77.678
			c0.282,0.381,0.484,0.937,0.757,0.973c0.87,0.118,1.766,0.044,2.646,0.044c0.102-1.471,0.102-1.471-1.169-1.882
			c0-1.404,0.013-2.821-0.003-4.238c-0.024-2.207-1.209-3.607-3.275-3.775c-1.681-0.136-3.169,0.378-4.411,1.534
			c0.717,1.387,0.893,1.432,2.183,0.778c0.402-0.203,0.849-0.368,1.293-0.431c1.065-0.151,1.729,0.4,1.842,1.472
			c0.033,0.312,0.005,0.631,0.005,1.008c-0.221,0-0.437-0.006-0.651,0.001c-1.25,0.037-2.463,0.239-3.587,0.823
			c-0.635,0.33-1.169,0.763-1.417,1.471c-0.612,1.753,0.574,3.376,2.524,3.446C146.045,78.946,147.151,78.518,148.028,77.678z
			 M280.861,74.206c0.159-0.007,0.276-0.018,0.393-0.018c1.778-0.001,3.558-0.015,5.336,0.007c0.534,0.006,0.773-0.207,0.789-0.728
			c0.03-0.977-0.133-1.908-0.641-2.757c-1.396-2.333-5.181-2.593-7.062-0.423c-1.553,1.791-1.574,3.871-0.726,5.962
			c0.734,1.81,2.422,2.739,4.615,2.644c1.424-0.062,2.75-0.419,3.725-1.613c-0.151-0.193-0.283-0.368-0.422-0.538
			c-0.514-0.63-0.646-0.656-1.361-0.306c-0.322,0.158-0.641,0.328-0.977,0.447C282.562,77.582,280.871,76.374,280.861,74.206z
			 M212.434,74.188c0.263,0,0.479,0,0.696,0c1.68,0,3.359-0.003,5.039,0.002c0.397,0.001,0.724-0.066,0.754-0.558
			c0.087-1.372-0.188-2.631-1.185-3.643c-1.287-1.307-3.648-1.534-5.408-0.587c-3.015,1.622-2.841,6.294-0.94,8.165
			c1.69,1.666,4.987,1.82,6.903,0.275c0.197-0.159,0.37-0.347,0.572-0.537c-0.178-0.232-0.336-0.411-0.464-0.61
			c-0.334-0.516-0.743-0.605-1.274-0.293c-0.308,0.182-0.635,0.341-0.971,0.464C214.152,77.604,212.455,76.418,212.434,74.188z
			 M133.77,74.188c0.259,0,0.478,0,0.696,0c1.679,0,3.357-0.003,5.036,0.002c0.402,0.001,0.713-0.082,0.745-0.567
			c0.085-1.304-0.155-2.521-1.071-3.501c-2.193-2.345-6.404-1.456-7.476,1.61c-0.274,0.787-0.363,1.683-0.338,2.521
			c0.062,2.116,1.27,3.774,3.047,4.388c1.966,0.679,4.494,0.09,5.759-1.357c-0.127-0.169-0.254-0.346-0.391-0.514
			c-0.556-0.684-0.645-0.694-1.457-0.287c-0.337,0.17-0.682,0.337-1.042,0.448C135.356,77.526,133.668,76.233,133.77,74.188z
			 M153.045,64.643c-0.254,1.351-0.166,1.526,1.027,1.813c0.367,0.088,0.341,0.316,0.341,0.581
			c-0.002,3.136-0.001,6.272-0.004,9.408c0,0.134-0.032,0.268-0.048,0.39c-1.473,0.302-1.624,0.528-1.306,1.91
			c1.707,0,3.415,0,5.118,0c0.177-1.542,0.177-1.542-1.413-1.945c0-4.041,0-8.102,0-12.157
			C155.47,64.643,154.255,64.643,153.045,64.643z M188.32,72.541c0.024-0.501,0.061-0.957,0.064-1.414
			c0.017-1.709,0.013-1.71-1.668-2.113c-2.797-0.672-5.217,0.495-5.892,2.982c-0.254,0.935-0.278,1.983-0.17,2.953
			c0.206,1.848,1.176,3.263,3.034,3.762c1.914,0.513,3.676,0.126,5.102-1.408c-0.197-0.261-0.386-0.493-0.557-0.737
			c-0.306-0.44-0.66-0.457-1.07-0.152c-0.177,0.13-0.357,0.258-0.549,0.363c-1.316,0.727-2.8,0.199-3.349-1.196
			c-0.377-0.959-0.383-1.952-0.164-2.941c0.335-1.511,1.391-2.165,2.926-1.942c0.505,0.073,0.656,0.283,0.708,0.745
			c0.128,1.139,0.145,1.137,1.289,1.118C188.104,72.558,188.182,72.55,188.32,72.541z M257.455,69.333
			c0.049,0.44-0.05,0.998,0.178,1.218c0.271,0.263,0.823,0.234,1.3,0.343c0,0.295-0.003,0.613,0,0.931
			c0.018,1.639,0,3.278,0.068,4.915c0.042,0.982,0.589,1.716,1.538,2.012c1.308,0.407,2.515,0.108,3.644-0.713
			c-0.204-0.331-0.406-0.625-0.572-0.938c-0.204-0.385-0.425-0.496-0.86-0.282c-0.851,0.418-1.395,0.049-1.4-0.909
			c-0.009-1.279-0.002-2.56-0.002-3.839c0-0.412,0-0.824,0-1.299c0.89,0,1.699,0,2.519,0c0-0.593,0-1.121,0-1.699
			c-0.847,0-1.659,0-2.546,0c0-1.056,0-2.062,0-3.093c-0.354,0-0.633,0.015-0.911-0.004c-0.594-0.04-0.862,0.225-0.937,0.818
			c-0.093,0.749-0.267,1.487-0.409,2.249C258.54,69.137,258.034,69.228,257.455,69.333z M161.059,70.845c0,0.252-0.001,0.47,0,0.688
			c0.007,1.659-0.001,3.319,0.028,4.979c0.015,0.843,0.342,1.563,1.087,2.021c1.132,0.695,3.083,0.433,4.085-0.546
			c-0.181-0.301-0.374-0.603-0.547-0.915c-0.198-0.355-0.422-0.455-0.828-0.265c-0.902,0.424-1.417,0.069-1.42-0.936
			c-0.004-1.52-0.002-3.04,0.001-4.56c0-0.17,0.026-0.339,0.043-0.542c0.849,0,1.642,0,2.45,0c0-0.584,0-1.127,0-1.722
			c-0.853,0-1.664,0-2.522,0c0-1.042,0-2.033,0-3.07c-0.346,0-0.642,0.01-0.938-0.003c-0.518-0.022-0.812,0.167-0.89,0.725
			c-0.109,0.786-0.285,1.562-0.432,2.343c-0.536,0.098-1.037,0.189-1.52,0.278C159.555,70.637,159.555,70.637,161.059,70.845z
			 M253.704,78.757c0.121-1.45,0.121-1.45-1.361-1.969c-0.011-0.037-0.032-0.075-0.032-0.112c-0.004-1.14-0.009-2.279-0.009-3.419
			c0-1.219,0.939-2.143,2.168-2.138c0.425,0.002,1.008,0.167,1.234-0.046c0.277-0.261,0.255-0.839,0.36-1.28
			c0.022-0.097,0.029-0.197,0.053-0.295c0.075-0.314-0.053-0.479-0.36-0.564c-1.03-0.281-1.941-0.069-2.712,0.663
			c-0.308,0.292-0.564,0.638-0.874,0.993c-0.051-0.368-0.037-0.708-0.156-0.992c-0.099-0.238-0.343-0.575-0.54-0.587
			c-0.97-0.061-1.944-0.027-2.905-0.027c-0.248,1.418-0.201,1.485,1.319,1.964c0,1.965,0,3.932,0,5.889
			c-1.468,0.327-1.652,0.606-1.302,1.921C250.28,78.757,251.974,78.757,253.704,78.757z M201.004,78.741c1.721,0,3.444,0,5.165,0
			c0.11-1.511,0.11-1.511-1.407-1.944c0-1.304-0.004-2.62,0.006-3.937c0.001-0.131,0.068-0.269,0.129-0.391
			c0.555-1.122,1.384-1.529,2.663-1.274c0.49,0.098,0.771-0.001,0.819-0.55c0.031-0.355,0.104-0.712,0.196-1.058
			c0.107-0.405-0.067-0.596-0.435-0.683c-0.913-0.218-1.756-0.067-2.469,0.552c-0.37,0.321-0.675,0.716-1.041,1.112
			c-0.046-0.336-0.033-0.671-0.148-0.954c-0.098-0.241-0.332-0.59-0.524-0.602c-0.988-0.062-1.982-0.028-3.068-0.028
			c0.061,0.544-0.036,1.119,0.205,1.446c0.234,0.316,0.814,0.377,1.258,0.557c0,1.922,0,3.875,0,5.82
			C200.842,77.24,200.776,77.334,201.004,78.741z M292.702,76.808c0-1.216-0.001-2.395,0-3.572c0.001-1.2,0.912-2.109,2.106-2.118
			c0.455-0.004,1.075,0.13,1.319-0.107c0.282-0.275,0.232-0.891,0.327-1.358c0.004-0.02,0.003-0.041,0.01-0.059
			c0.193-0.454-0.078-0.621-0.449-0.7c-0.985-0.211-1.867-0.004-2.596,0.711c-0.302,0.296-0.568,0.63-0.878,0.977
			c-0.065-0.419-0.069-0.791-0.193-1.117c-0.075-0.196-0.33-0.451-0.515-0.46c-0.97-0.046-1.943-0.021-2.906-0.021
			c-0.155,1.483-0.155,1.483,1.328,1.964c0,1.968,0,3.935,0,5.89c-1.491,0.342-1.612,0.526-1.291,1.919c1.688,0,3.379,0,5.063,0
			C294.308,77.363,294.212,77.222,292.702,76.808z"/>
		<path fill-rule="evenodd" clip-rule="evenodd" fill="none" d="M46.12,41.48c0-9.12,0-18.24,0-27.36c10.48,0,20.96,0,31.44,0
			c-2.784,1.468-5.606,2.867-8.343,4.418c-5.949,3.373-11.547,7.234-16.286,12.224c-2.874,3.027-5.265,6.37-6.596,10.382
			C46.295,41.267,46.193,41.369,46.12,41.48z"/>
		<path fill-rule="evenodd" clip-rule="evenodd" fill="#0891C7" d="M72.04,86.96c-0.72-0.078-1.44-0.157-2.16-0.235
			c-0.23-0.025-0.461-0.051-0.705-0.196c1.132-0.533,2.27-1.054,3.395-1.601c6.738-3.278,13.208-6.995,19.017-11.771
			c3.43-2.819,6.536-5.944,8.83-9.793c1.493-2.505,2.474-5.182,2.707-8.11c0.063-0.014,0.126-0.027,0.188-0.042
			c0.364,1.327,0.755,2.647,1.071,3.986c0.063,0.27-0.15,0.61-0.253,0.912c-1.186,3.46-3.174,6.436-5.58,9.15
			c-4.084,4.609-8.942,8.284-14.189,11.43c-3.474,2.082-7.098,3.913-10.654,5.857c-0.239,0.131-0.472,0.274-0.708,0.412
			C72.68,86.96,72.36,86.96,72.04,86.96z"/>
		<path fill-rule="evenodd" clip-rule="evenodd" fill="#0891C7" d="M46.12,41.48c0.073-0.111,0.175-0.213,0.215-0.335
			c1.332-4.012,3.722-7.355,6.596-10.382c4.739-4.99,10.337-8.851,16.286-12.224c2.736-1.551,5.559-2.951,8.343-4.418
			c0.36,0,0.72,0,1.08,0c0.699,0.079,1.398,0.16,2.098,0.236c0.193,0.021,0.387,0.031,0.624,0.161
			c-0.195,0.098-0.387,0.202-0.585,0.292c-6.001,2.745-11.801,5.851-17.229,9.62c-3.917,2.72-7.593,5.72-10.668,9.396
			c-2.396,2.865-4.308,5.996-5.125,9.696c-0.158,0.716-0.249,1.447-0.471,2.208c-0.309-1.022-0.614-2.045-0.928-3.065
			c-0.062-0.2-0.156-0.39-0.235-0.584C46.12,41.88,46.12,41.68,46.12,41.48z"/>
		<path fill-rule="evenodd" clip-rule="evenodd" fill="#6F6E5F" d="M305.08,76.4c-0.02,0.006-0.049,0.007-0.056,0.02
			c-1.061,2.067-2.151,2.676-4.562,2.47c-0.672-0.057-1.334-0.231-1.999-0.356c-0.31-0.058-0.471-0.199-0.455-0.566
			c0.033-0.772,0.011-1.548,0.011-2.358c0.229-0.012,0.402-0.028,0.576-0.029c0.954-0.006,1.024,0.04,1.076,0.988
			c0.021,0.384,0.128,0.608,0.539,0.603c0.555-0.006,1.116,0.041,1.661-0.035c0.5-0.069,0.879-0.364,0.937-0.938
			c0.057-0.562-0.279-0.855-0.732-1.033c-0.722-0.283-1.468-0.504-2.186-0.798c-1.329-0.545-1.919-1.396-1.871-2.622
			c0.05-1.249,0.787-2.224,2.068-2.649c1.513-0.503,2.993-0.252,4.473,0.261c0,0.903,0,1.799,0,2.781
			c-0.375,0-0.747,0.021-1.116-0.006c-0.475-0.035-0.508-0.455-0.487-0.765c0.042-0.646-0.297-0.795-0.827-0.771
			c-0.357,0.016-0.764-0.046-1.057,0.105c-0.316,0.162-0.682,0.507-0.733,0.82c-0.044,0.263,0.265,0.717,0.538,0.871
			c0.529,0.298,1.14,0.457,1.725,0.651c1.129,0.375,2.133,0.884,2.479,2.156C305.08,75.6,305.08,76,305.08,76.4z"/>
		<path fill-rule="evenodd" clip-rule="evenodd" fill="#6F6E5F" d="M292.222,51.654c-2.795,0-5.528,0-8.329,0
			c0-0.227,0-0.441,0-0.656c0-4.22,0.002-8.439-0.004-12.659c0-0.459-0.011-0.922-0.075-1.375c-0.339-2.381-2.309-3.534-4.648-2.739
			c-0.957,0.326-1.698,0.958-2.359,1.691c-0.105,0.117-0.158,0.323-0.159,0.488c-0.008,3.64-0.006,7.28-0.003,10.919
			c0,0.057,0.021,0.115,0.038,0.206c0.693,0.137,1.394,0.273,2.093,0.415c0.578,0.117,0.945,0.473,0.971,1.059
			c0.038,0.873,0.01,1.749,0.01,2.649c-3.815,0-7.584,0-11.401,0c0-0.912-0.023-1.806,0.009-2.698
			c0.02-0.542,0.374-0.876,0.89-0.995c0.602-0.14,1.209-0.263,1.821-0.346c0.315-0.043,0.39-0.175,0.39-0.465
			c-0.006-4.1,0-8.2-0.021-12.299c-0.001-0.15-0.228-0.388-0.391-0.433c-0.499-0.135-1.019-0.188-1.528-0.285
			c-0.89-0.17-1.223-0.574-1.229-1.485c-0.005-0.756-0.001-1.512-0.001-2.327c0.928,0,1.802,0,2.676,0
			c1.181,0,2.36-0.003,3.54,0.001c0.878,0.003,1.269,0.314,1.475,1.174c0.097,0.402,0.178,0.807,0.264,1.204
			c0.652-0.529,1.237-1.072,1.89-1.517c1.308-0.892,2.759-1.313,4.359-1.195c2.245,0.165,3.637,1.458,4.563,3.386
			c0.069,0.144,0.12,0.295,0.186,0.458c0.05-0.038,0.108-0.06,0.132-0.103c1.634-2.923,4.292-3.92,7.427-3.702
			c4.147,0.29,6.52,2.917,6.643,7.266c0.09,3.217,0.028,6.438,0.034,9.658c0,0.178,0,0.356,0,0.583
			c0.626,0.112,1.229,0.217,1.831,0.329c0.978,0.183,1.286,0.554,1.288,1.549c0.001,0.7-0.003,1.399-0.007,2.1
			c0,0.036-0.022,0.072-0.045,0.139c-2.72,0-5.449,0-8.249,0c0-0.222,0-0.434,0-0.646c0-4.26,0.004-8.52-0.005-12.779
			c-0.001-0.478-0.034-0.962-0.115-1.432c-0.354-2.032-1.915-3.09-3.991-2.73c-1.755,0.304-3.007,1.572-3.049,3.348
			c-0.074,3.178-0.031,6.359-0.037,9.539c0,0.179,0,0.357,0,0.572c0.685,0.136,1.347,0.254,2.003,0.4
			c0.796,0.177,1.089,0.519,1.112,1.326C292.239,50.025,292.222,50.805,292.222,51.654z"/>
		<path fill-rule="evenodd" clip-rule="evenodd" fill="#6F6E5F" d="M137.379,30.327c2.179,0,4.334-0.021,6.489,0.014
			c0.584,0.009,0.998,0.372,1.126,0.985c0.123,0.585,0.251,1.169,0.424,1.976c0.281-0.341,0.457-0.601,0.677-0.813
			c2.306-2.216,5.029-3.048,8.147-2.284c2.135,0.523,3.653,1.944,4.521,3.898c1.949,4.389,2.039,8.861-0.123,13.188
			c-2,4.003-5.997,5.446-10.052,4.365c-1.008-0.269-1.91-0.933-2.877-1.424c-0.001,0.008-0.041,0.13-0.041,0.253
			c-0.004,1.18,0.006,2.359-0.008,3.538c-0.004,0.328,0.056,0.513,0.437,0.555c0.554,0.061,1.104,0.173,1.648,0.293
			c0.684,0.15,1.028,0.511,1.06,1.192c0.039,0.834,0.009,1.671,0.009,2.541c-3.828,0-7.616,0-11.459,0
			c0-0.914-0.042-1.828,0.015-2.736c0.037-0.595,0.515-0.938,1.215-1.048c0.473-0.074,0.941-0.191,1.417-0.231
			c0.431-0.037,0.496-0.255,0.496-0.631c-0.009-6.318-0.011-12.636,0.002-18.953c0.001-0.43-0.114-0.604-0.557-0.632
			c-0.475-0.031-0.944-0.15-1.414-0.24c-0.862-0.165-1.188-0.562-1.192-1.445c-0.003-0.72,0.001-1.439,0.003-2.159
			C137.342,30.49,137.355,30.452,137.379,30.327z M145.667,41.313c0,1.459-0.007,2.919,0.008,4.378
			c0.002,0.223,0.048,0.497,0.182,0.66c1.85,2.254,6.342,2.518,7.991-0.703c0.901-1.761,1.015-3.635,0.954-5.541
			c-0.043-1.358-0.188-2.71-0.823-3.954c-0.571-1.117-1.437-1.849-2.69-2.082c-1.986-0.37-4.408,0.661-5.49,2.359
			c-0.107,0.167-0.125,0.413-0.126,0.622C145.663,38.474,145.667,39.893,145.667,41.313z"/>
		<path fill-rule="evenodd" clip-rule="evenodd" fill="#6F6E5F" d="M115.893,42.68c0.814,0,1.553-0.003,2.292,0
			c0.756,0.004,1.037,0.243,1.131,1.014c0.115,0.931,0.187,1.868,0.32,2.796c0.026,0.179,0.227,0.446,0.385,0.477
			c2.326,0.457,4.686,0.702,7.021,0.249c2.816-0.546,3.556-2.807,3.151-5.052c-0.179-0.993-0.856-1.694-1.735-2.095
			c-1.137-0.518-2.33-0.915-3.506-1.344c-1.292-0.471-2.621-0.851-3.881-1.391c-3.662-1.568-4.922-4.743-4.557-8.271
			c0.445-4.31,3.645-6.902,7.451-7.586c3.671-0.659,7.23,0.047,10.676,1.375c0.141,0.054,0.287,0.314,0.288,0.479
			c0.019,2.418,0.013,4.837,0.013,7.32c-0.903,0-1.795,0.047-2.679-0.019c-0.477-0.036-0.646-0.488-0.699-0.93
			c-0.109-0.912-0.223-1.824-0.301-2.739c-0.03-0.349-0.157-0.527-0.501-0.616c-1.979-0.511-3.986-0.676-5.996-0.322
			c-2.145,0.378-3.457,2.369-2.931,4.32c0.28,1.039,1.012,1.743,1.956,2.139c1.54,0.647,3.128,1.176,4.69,1.772
			c0.949,0.363,1.907,0.714,2.825,1.146c3.189,1.5,4.684,4.335,4.284,7.878c-0.658,5.83-4.971,8.526-9.722,8.738
			c-3.229,0.145-6.362-0.396-9.427-1.394c-0.403-0.131-0.565-0.289-0.561-0.736C115.905,47.511,115.893,45.135,115.893,42.68z"/>
		<path fill-rule="evenodd" clip-rule="evenodd" fill="#6F6E5F" d="M244.138,34.46c-0.681-0.118-1.288-0.222-1.895-0.328
			c-0.904-0.158-1.237-0.546-1.242-1.459c-0.004-0.758-0.001-1.516-0.001-2.313c2.754,0,5.482,0,8.302,0c0,0.193,0,0.402,0,0.611
			c-0.001,4.259-0.004,8.519,0.005,12.778c0.001,0.457,0.037,0.922,0.122,1.37c0.393,2.049,1.802,3.05,3.97,2.821
			c1.552-0.165,2.852-0.864,3.942-1.958c0.125-0.125,0.227-0.339,0.228-0.512c0.012-3.599,0.008-7.199,0.005-10.798
			c0-0.056-0.028-0.112-0.054-0.206c-0.595-0.109-1.2-0.215-1.804-0.332c-0.912-0.176-1.23-0.539-1.254-1.467
			c-0.018-0.699-0.003-1.399-0.001-2.1c0-0.057,0.018-0.114,0.033-0.208c2.748,0,5.493,0,8.293,0c0,0.235,0,0.451,0,0.667
			c0,5.299,0.005,10.599-0.01,15.897c-0.001,0.45,0.069,0.692,0.584,0.732c0.534,0.042,1.062,0.18,1.588,0.294
			c0.577,0.125,0.925,0.494,0.945,1.083c0.029,0.856,0.007,1.713,0.007,2.617c-0.225,0.012-0.416,0.03-0.607,0.03
			c-1.84,0.002-3.68,0.002-5.52,0.001c-0.934-0.001-1.3-0.29-1.513-1.189c-0.104-0.439-0.208-0.88-0.328-1.388
			c-0.341,0.303-0.618,0.557-0.903,0.801c-2.411,2.058-5.184,2.649-8.177,1.737c-2.656-0.809-3.991-2.868-4.476-5.503
			c-0.164-0.898-0.22-1.826-0.229-2.741c-0.028-2.739-0.011-5.479-0.011-8.218C244.138,34.96,244.138,34.742,244.138,34.46z"/>
		<path fill-rule="evenodd" clip-rule="evenodd" fill="#6F6E5F" d="M168.243,41.667c0.159,1.756,0.461,3.362,1.644,4.627
			c1.716,1.834,3.883,2.011,6.139,1.427c1.008-0.261,1.949-0.805,2.891-1.278c1.035-0.52,1.538-0.444,2.271,0.472
			c0.411,0.514,0.821,1.029,1.236,1.55c-0.959,1.185-2.134,2.043-3.511,2.572c-2.555,0.982-5.208,1.246-7.89,0.69
			c-3.236-0.671-5.58-2.574-6.861-5.606c-1.478-3.5-1.579-7.09,0.03-10.582c1.499-3.253,4.159-5.014,7.694-5.461
			c2.126-0.269,4.207-0.08,6.117,0.951c2.866,1.547,4.197,4.108,4.544,7.247c0.08,0.729,0.058,1.476,0.009,2.209
			c-0.063,0.954-0.342,1.179-1.285,1.18c-4.08,0.001-8.16,0-12.24,0C168.796,41.667,168.562,41.667,168.243,41.667z M177.959,38.472
			c0.029-2.929-1.87-4.84-4.699-4.792c-2.655,0.045-4.926,2.308-4.797,4.792C171.613,38.472,174.763,38.472,177.959,38.472z"/>
		<path fill-rule="evenodd" clip-rule="evenodd" fill="#6F6E5F" d="M203.428,48.46c-0.979,1.215-2.152,2.12-3.579,2.669
			c-2.33,0.897-4.738,1.144-7.173,0.588c-2.815-0.642-4.831-2.399-6.017-4.972c-1.697-3.684-1.744-7.479-0.122-11.204
			c1.422-3.264,4.07-4.959,7.543-5.454c2.867-0.408,5.541,0.381,8.182,1.34c0.138,0.05,0.272,0.326,0.273,0.499
			c0.02,2.037,0.013,4.074,0.013,6.182c-0.937,0-1.811,0.039-2.679-0.015c-0.486-0.03-0.68-0.453-0.735-0.898
			c-0.096-0.772-0.201-1.546-0.242-2.322c-0.022-0.421-0.179-0.623-0.584-0.659c-0.95-0.086-1.909-0.306-2.848-0.236
			c-2.162,0.161-3.576,1.424-4.226,3.44c-0.772,2.399-0.744,4.827,0.065,7.236c1.29,3.837,5.541,4.096,7.917,2.44
			c0.327-0.228,0.644-0.473,0.97-0.702c0.639-0.45,1.368-0.343,1.846,0.27C202.499,47.26,202.962,47.859,203.428,48.46z"/>
		<path fill-rule="evenodd" clip-rule="evenodd" fill="#6F6E5F" d="M205.174,31.03c1.044-0.164,2.025-0.331,3.012-0.465
			c0.325-0.044,0.48-0.155,0.541-0.502c0.301-1.73,0.633-3.455,0.95-5.182c0.132-0.717,0.424-1.047,1.135-1.083
			c0.894-0.045,1.792-0.011,2.753-0.011c0,2.241,0,4.45,0,6.725c1.89,0,3.716,0,5.579,0c0,1.256,0,2.445,0,3.705
			c-1.828,0-3.655,0-5.556,0c0,0.282,0,0.495,0,0.708c0,3.539,0.05,7.079-0.018,10.617c-0.045,2.336,1.845,2.723,3.219,1.935
			c0.928-0.532,1.103-0.455,1.666,0.458c0.438,0.71,0.875,1.421,1.331,2.161c-1.206,1.004-2.573,1.615-4.076,1.788
			c-1.057,0.121-2.169,0.131-3.208-0.064c-2.254-0.424-3.702-2.077-4.009-4.351c-0.072-0.533-0.108-1.074-0.11-1.612
			c-0.009-3.639-0.005-7.278-0.005-10.917c0-0.216,0-0.432,0-0.711c-0.688,0-1.32,0.008-1.954-0.002
			c-0.832-0.013-1.221-0.38-1.246-1.202C205.157,32.386,205.174,31.747,205.174,31.03z"/>
		<path fill-rule="evenodd" clip-rule="evenodd" fill="#6F6E5F" d="M222.582,51.651c0-0.885-0.027-1.723,0.009-2.558
			c0.031-0.692,0.359-1.025,1.064-1.175c0.546-0.116,1.095-0.232,1.648-0.3c0.315-0.039,0.393-0.173,0.392-0.462
			c-0.006-4.098,0-8.197-0.021-12.295c0-0.155-0.215-0.403-0.375-0.447c-0.497-0.138-1.017-0.196-1.526-0.291
			c-0.841-0.155-1.179-0.533-1.197-1.382c-0.017-0.794-0.004-1.589-0.004-2.415c2.225,0,4.381-0.01,6.537,0.006
			c0.63,0.004,0.989,0.393,1.09,0.995c0.146,0.878,0.262,1.76,0.388,2.615c0.619-0.742,1.184-1.541,1.871-2.214
			c1.655-1.623,3.644-2.165,5.895-1.545c0.995,0.274,1,0.327,0.843,1.306c-0.149,0.926-0.324,1.848-0.476,2.773
			c-0.141,0.861-0.435,1.08-1.317,0.906c-1.066-0.21-2.13-0.359-3.202-0.061c-1.704,0.475-2.559,1.805-3.271,3.271
			c-0.049,0.1-0.025,0.236-0.025,0.356c-0.001,2.839-0.001,5.678,0,8.517c0,0.078,0.015,0.157,0.028,0.292
			c0.597,0.109,1.198,0.222,1.8,0.331c0.973,0.174,1.287,0.547,1.29,1.544c0.002,0.734,0,1.469,0,2.231
			C230.194,51.651,226.423,51.651,222.582,51.651z"/>
		<path fill-rule="evenodd" clip-rule="evenodd" fill="#00BCDE" d="M53.86,82.005c2.144-0.984,4.189-1.885,6.201-2.854
			c6.276-3.024,12.321-6.442,17.866-10.688c4.019-3.076,7.704-6.488,10.418-10.824c1.938-3.094,3.117-6.424,2.994-10.125
			c-0.058-1.747-0.418-3.443-1.051-5.077c-0.113-0.292-0.22-0.588-0.246-0.983c0.792,0.475,1.596,0.933,2.368,1.438
			c0.15,0.098,0.207,0.373,0.262,0.579c1.096,4.048,0.722,7.987-0.904,11.828c-1.276,3.016-3.134,5.652-5.312,8.073
			c-4.252,4.726-9.331,8.42-14.715,11.726c-4.876,2.994-9.97,5.569-15.218,7.842c-0.232,0.101-0.583,0.084-0.822-0.016
			C55.096,82.673,54.525,82.344,53.86,82.005z"/>
		<path fill-rule="evenodd" clip-rule="evenodd" fill="#00BCDE" d="M60.423,59.525c-0.775-0.471-1.56-0.929-2.317-1.427
			c-0.137-0.09-0.191-0.338-0.242-0.524c-0.977-3.578-0.792-7.109,0.432-10.599c1.163-3.314,3.068-6.178,5.356-8.803
			c4.248-4.873,9.388-8.654,14.846-12.034c4.951-3.065,10.137-5.684,15.474-8.004c0.246-0.107,0.621-0.077,0.878,0.029
			c0.604,0.248,1.173,0.581,1.801,0.902c-2.028,0.93-3.999,1.797-5.937,2.73c-7.568,3.64-14.817,7.801-21.198,13.323
			c-3.453,2.988-6.502,6.328-8.532,10.484c-1.286,2.633-1.945,5.403-1.772,8.343c0.1,1.705,0.494,3.352,1.131,4.938
			c0.071,0.176,0.127,0.357,0.19,0.537C60.495,59.456,60.459,59.491,60.423,59.525z"/>
		<path fill-rule="evenodd" clip-rule="evenodd" fill="#8DC640" d="M86.077,39.623c0.82,0.364,1.542,0.648,2.222,1.011
			c0.199,0.106,0.335,0.42,0.403,0.666c1.235,4.479,0.678,8.783-1.328,12.927c-1.974,4.079-4.901,7.417-8.218,10.439
			c-4.41,4.018-9.31,7.366-14.531,10.214c-3.851,2.1-7.833,3.959-11.75,5.937c-0.443,0.224-0.799,0.211-1.191-0.111
			c-0.383-0.315-0.817-0.568-1.33-0.918c0.258-0.12,0.439-0.209,0.624-0.29c7.69-3.348,15.084-7.23,21.869-12.2
			c3.871-2.835,7.451-5.981,10.309-9.874c1.983-2.702,3.495-5.623,4.045-8.976c0.455-2.768,0.144-5.452-0.847-8.066
			C86.273,40.168,86.198,39.954,86.077,39.623z"/>
		<path fill-rule="evenodd" clip-rule="evenodd" fill="#8DC640" d="M100.167,21.284c-1.065,0.474-2.067,0.909-3.06,1.363
			c-7.1,3.249-13.93,6.968-20.181,11.678c-3.866,2.912-7.418,6.151-10.165,10.182c-1.822,2.673-3.153,5.552-3.529,8.808
			c-0.292,2.529,0.037,4.979,0.934,7.357c0.069,0.183,0.134,0.367,0.264,0.724c-0.882-0.396-1.64-0.714-2.371-1.084
			c-0.131-0.066-0.173-0.341-0.226-0.527c-1.268-4.525-0.672-8.862,1.364-13.036c1.959-4.015,4.841-7.316,8.116-10.295
			c5.479-4.985,11.7-8.882,18.246-12.278c2.691-1.396,5.462-2.636,8.188-3.962c0.366-0.178,0.647-0.165,0.97,0.08
			C99.163,20.628,99.637,20.924,100.167,21.284z"/>
		<path fill-rule="evenodd" clip-rule="evenodd" fill="#8DC640" d="M103.117,23.686c-2.423,1.162-4.782,2.239-7.093,3.411
			c-6.197,3.141-12.14,6.692-17.5,11.146c-3.573,2.969-6.785,6.264-9.069,10.362c-1.502,2.695-2.407,5.56-2.388,8.677
			c0.01,1.651,0.3,3.256,0.808,4.824c0.046,0.143,0.095,0.284,0.177,0.529c-0.756-0.246-1.422-0.438-2.063-0.691
			c-0.153-0.062-0.273-0.321-0.323-0.512c-1.045-4.004-0.586-7.879,1.033-11.646c1.489-3.463,3.727-6.415,6.332-9.1
			c5.116-5.272,11.128-9.348,17.524-12.865c3.406-1.873,6.94-3.512,10.411-5.27c0.388-0.196,0.685-0.201,1.005,0.121
			C102.32,23.023,102.712,23.332,103.117,23.686z"/>
		<path fill-rule="evenodd" clip-rule="evenodd" fill="#8DC640" d="M82.472,38.411c0.762,0.244,1.431,0.427,2.069,0.685
			c0.165,0.067,0.286,0.357,0.338,0.566c1.061,4.201,0.519,8.238-1.283,12.138c-1.745,3.777-4.326,6.942-7.309,9.788
			c-6.546,6.246-14.224,10.805-22.269,14.803c-1.5,0.746-3.034,1.425-4.542,2.156c-0.359,0.174-0.62,0.148-0.904-0.129
			c-0.366-0.358-0.763-0.684-1.194-1.064c1.551-0.718,3.038-1.382,4.504-2.09c6.942-3.352,13.611-7.155,19.617-12.03
			c3.667-2.978,6.981-6.287,9.372-10.416c1.757-3.034,2.815-6.275,2.543-9.82c-0.101-1.322-0.474-2.623-0.73-3.932
			C82.649,38.881,82.569,38.705,82.472,38.411z"/>
		<path fill-rule="evenodd" clip-rule="evenodd" fill="#00BCDE" d="M58.066,83.917c2.07-0.951,4.15-1.869,6.199-2.854
			c5.955-2.861,11.694-6.097,16.994-10.065c4.246-3.18,8.145-6.71,11.001-11.253c1.787-2.841,2.925-5.903,3.032-9.284
			c0.062-1.953-0.302-3.854-0.969-5.694c-0.067-0.185-0.131-0.37-0.11-0.647c0.41,0.312,0.794,0.668,1.235,0.928
			c1.242,0.73,1.557,1.886,1.688,3.217c0.534,5.43-1.389,10.074-4.516,14.336c-3.158,4.304-7.15,7.739-11.453,10.834
			c-6.289,4.522-13.086,8.146-20.155,11.275c-0.228,0.102-0.549,0.116-0.788,0.044c-0.687-0.206-1.355-0.477-2.029-0.728
			C58.144,84.008,58.106,83.952,58.066,83.917z"/>
		<path fill-rule="evenodd" clip-rule="evenodd" fill="#00BCDE" d="M56.221,56.855c-0.805-0.679-1.617-1.351-2.409-2.044
			c-0.101-0.089-0.118-0.287-0.149-0.439c-0.92-4.431-0.018-8.563,2.072-12.493c2.039-3.831,4.904-6.998,8.119-9.848
			c7.264-6.441,15.667-11.058,24.393-15.166c1.265-0.596,2.347-0.663,3.534-0.029c0.204,0.109,0.428,0.179,0.741,0.307
			c-1.401,0.625-2.696,1.188-3.978,1.779c-7.094,3.27-13.915,7.011-20.124,11.787c-3.869,2.975-7.402,6.289-10.045,10.447
			c-2.026,3.187-3.321,6.62-3.087,10.447c0.093,1.515,0.557,3.007,0.861,4.508c0.045,0.223,0.136,0.436,0.206,0.653
			C56.31,56.794,56.265,56.824,56.221,56.855z"/>
		<path fill-rule="evenodd" clip-rule="evenodd" fill="#0891C7" d="M98.991,48.384c0.719,0.989,1.553,1.918,2.11,2.991
			c0.277,0.532,0.087,1.331,0.042,2.005c-0.321,4.78-2.448,8.791-5.375,12.443c-3.485,4.349-7.774,7.8-12.355,10.91
			c-5.369,3.646-11.083,6.669-16.98,9.354c-0.157,0.071-0.347,0.135-0.51,0.114c-0.435-0.056-0.864-0.152-1.292-0.247
			c-0.52-0.114-1.037-0.244-1.744-0.412c0.378-0.177,0.596-0.285,0.818-0.383c7.443-3.271,14.601-7.053,21.168-11.881
			c3.767-2.77,7.252-5.845,10.054-9.622c1.96-2.644,3.459-5.508,4.042-8.789c0.35-1.971,0.311-3.935-0.092-5.894
			c-0.033-0.161-0.054-0.325-0.08-0.487C98.862,48.453,98.927,48.418,98.991,48.384z"/>
		<path fill-rule="evenodd" clip-rule="evenodd" fill="#0891C7" d="M51.548,52.595c-0.746-1.023-1.599-1.893-2.062-2.936
			c-0.31-0.698-0.137-1.649-0.06-2.476c0.416-4.431,2.386-8.202,5.087-11.634c3.665-4.655,8.232-8.298,13.121-11.57
			c5.192-3.476,10.701-6.377,16.38-8.965c0.248-0.112,0.576-0.112,0.855-0.077c0.534,0.066,1.061,0.189,1.588,0.3
			c0.331,0.07,0.657,0.163,1.152,0.288c-0.297,0.143-0.471,0.232-0.651,0.312c-6.359,2.787-12.51,5.965-18.292,9.825
			c-3.8,2.537-7.392,5.334-10.515,8.688c-2.666,2.862-4.904,6.003-6.091,9.787c-0.791,2.521-0.993,5.083-0.45,7.685
			c0.032,0.155,0.04,0.316,0.046,0.476C51.66,52.348,51.623,52.398,51.548,52.595z"/>
		<path fill-rule="evenodd" clip-rule="evenodd" fill="#6F6E5F" d="M116.759,66.939c-1.535-0.428-1.535-0.428-1.342-1.914
			c1.771,0,3.544,0,5.429,0c-0.034,0.487,0.088,1.076-0.147,1.423c-0.217,0.318-0.818,0.376-1.285,0.562c0,1.236,0,2.512,0,3.838
			c2.103,0,4.208,0,6.35,0c0-1.273,0-2.564,0-3.834c-0.436-0.188-1.017-0.267-1.274-0.598c-0.23-0.299-0.105-0.873-0.14-1.372
			c1.844,0,3.634,0,5.428,0c0.316,1.233,0.16,1.467-1.322,1.897c0,3.28,0,6.571,0,9.81c0.451,0.189,1.03,0.258,1.258,0.577
			c0.237,0.332,0.136,0.905,0.187,1.416c-1.878,0-3.666,0-5.45,0c-0.267-1.485-0.208-1.572,1.319-1.92c0-1.323,0-2.654,0-4.014
			c-2.111,0-4.202,0-6.337,0c0,1.334,0,2.659,0,3.984c1.525,0.471,1.525,0.471,1.341,1.941c-1.778,0-3.562,0-5.346,0
			c-0.26-1.519-0.185-1.629,1.332-1.893C116.759,73.562,116.759,70.272,116.759,66.939z"/>
		<path fill-rule="evenodd" clip-rule="evenodd" fill="#6F6E5F" d="M225.724,78.741c-0.235-1.47-0.16-1.577,1.37-1.917
			c0-3.277,0-6.563,0-9.82c-0.451-0.178-1.034-0.234-1.273-0.551c-0.245-0.323-0.153-0.901-0.214-1.414
			c0.259-0.017,0.432-0.037,0.604-0.037c1.798-0.003,3.599-0.059,5.393,0.021c0.92,0.042,1.877,0.205,2.733,0.531
			c1.624,0.621,2.515,2.219,2.401,3.975c-0.14,2.164-1.154,3.527-3.136,4.094c-0.624,0.179-1.293,0.223-1.946,0.269
			c-0.614,0.044-1.234,0.01-1.954,0.01c0,0.513,0,1.001,0,1.488c0,0.477,0,0.952,0,1.413c1.545,0.388,1.545,0.388,1.426,1.938
			C229.327,78.741,227.523,78.741,225.724,78.741z M229.725,71.836c0.835,0,1.617,0.062,2.386-0.014
			c1.231-0.123,1.959-0.985,2.027-2.267c0.068-1.265-0.53-2.182-1.751-2.41c-0.862-0.161-1.765-0.114-2.662-0.161
			C229.725,68.673,229.725,70.243,229.725,71.836z"/>
		<path fill-rule="evenodd" clip-rule="evenodd" fill="#6F6E5F" d="M171.52,76.815c1.57,0.362,1.57,0.362,1.392,1.933
			c-1.706,0-3.416,0-5.125,0c-0.333-1.354-0.196-1.558,1.325-1.938c0-3.407,0-6.82,0-10.173c-0.47-0.192-1.057-0.256-1.288-0.576
			c-0.234-0.325-0.117-0.904-0.156-1.409c1.316,0,2.547,0,3.82,0c0,1.731,0,3.465,0,5.311c0.231-0.156,0.388-0.254,0.535-0.364
			c0.88-0.659,1.876-0.884,2.946-0.725c1.561,0.232,2.586,1.453,2.66,3.22c0.057,1.357,0.024,2.719,0.031,4.078
			c0.001,0.217,0,0.433,0,0.635c1.575,0.404,1.575,0.404,1.36,1.946c-1.226,0-2.455,0-3.764,0c0-0.229,0-0.441,0-0.654
			c0-1.84,0.005-3.68-0.001-5.52c-0.006-1.613-1.175-2.353-2.638-1.661c-0.717,0.338-1.207,0.757-1.128,1.724
			C171.605,74.028,171.52,75.432,171.52,76.815z"/>
		<path fill-rule="evenodd" clip-rule="evenodd" fill="#6F6E5F" d="M269.422,76.817c1.534,0.362,1.534,0.362,1.404,1.919
			c-1.72,0-3.444,0-5.168,0c-0.224-1.532-0.184-1.59,1.35-1.904c0-1.965,0-3.937,0-5.904c-1.533-0.374-1.533-0.374-1.357-1.943
			c0.965,0,1.947-0.075,2.906,0.043c0.306,0.038,0.549,0.59,0.828,0.915c0.333-0.205,0.762-0.537,1.242-0.755
			c2.489-1.13,4.802,0.272,4.905,2.995c0.058,1.535,0.011,3.074,0.011,4.565c0.489,0.188,1.088,0.235,1.307,0.55
			c0.243,0.348,0.14,0.938,0.19,1.456c-1.329,0-2.559,0-3.862,0c0-0.595,0-1.168,0-1.741c0-1.42,0.004-2.84-0.001-4.259
			c-0.004-1.116-0.34-1.758-1.022-1.977c-0.779-0.251-2.116,0.164-2.618,0.828c-0.075,0.1-0.108,0.252-0.109,0.381
			C269.42,73.584,269.422,75.183,269.422,76.817z"/>
		<path fill-rule="evenodd" clip-rule="evenodd" fill="#6F6E5F" d="M198.271,76.812c1.256,0.455,1.315,0.556,1.081,1.927
			c-0.801,0-1.63,0.094-2.419-0.043c-0.351-0.061-0.62-0.586-0.979-0.953c-0.624,0.542-1.466,1.027-2.486,1.129
			c-0.88,0.087-1.73,0.016-2.452-0.538c-1.358-1.041-1.225-3.19,0.25-4.132c1.199-0.768,2.551-0.987,3.942-1.04
			c0.214-0.008,0.429-0.001,0.623-0.001c0.033-0.094,0.057-0.129,0.058-0.165c0.027-0.768,0.074-1.585-0.657-2.063
			c-0.784-0.513-1.61-0.274-2.395,0.104c-0.054,0.026-0.105,0.058-0.156,0.09c-1.191,0.75-1.627,0.386-2.116-0.826
			c1.57-1.339,3.357-1.878,5.379-1.305c1.433,0.406,2.259,1.775,2.28,3.57c0.017,1.398,0.012,2.797,0.018,4.196
			C198.242,76.778,198.261,76.795,198.271,76.812z M195.898,74.652c-0.977-0.104-2.3,0.144-2.946,0.51
			c-0.404,0.229-0.661,0.572-0.573,1.017c0.062,0.315,0.238,0.731,0.489,0.864c0.738,0.39,1.494,0.226,2.214-0.169
			c0.618-0.338,0.962-0.792,0.822-1.533C195.864,75.13,195.898,74.905,195.898,74.652z"/>
		<path fill-rule="evenodd" clip-rule="evenodd" fill="#6F6E5F" d="M238.1,70.304c1.548-1.335,3.326-1.877,5.32-1.321
			c1.304,0.362,2.095,1.344,2.242,2.69c0.127,1.167,0.091,2.353,0.118,3.53c0.012,0.537,0.002,1.076,0.002,1.601
			c1.256,0.452,1.256,0.452,1.127,1.894c-0.861,0-1.74,0.075-2.592-0.043c-0.279-0.038-0.489-0.579-0.776-0.948
			c-0.074,0.056-0.236,0.181-0.401,0.302c-1.189,0.872-2.489,1.132-3.906,0.683c-0.911-0.29-1.412-0.957-1.571-1.867
			c-0.171-0.976,0.068-1.844,0.896-2.451c1.226-0.899,2.656-1.144,4.132-1.211c0.235-0.011,0.472-0.001,0.786-0.001
			c-0.044-0.488-0.034-0.93-0.13-1.346c-0.182-0.782-0.703-1.201-1.529-1.133c-0.54,0.045-1.12,0.189-1.583,0.459
			C238.996,71.861,238.587,71.479,238.1,70.304z M243.452,74.607c-1.094-0.014-2.089,0.098-3.012,0.585
			c-0.417,0.222-0.627,0.605-0.517,1.043c0.078,0.312,0.274,0.712,0.532,0.836c0.752,0.361,1.502,0.169,2.22-0.227
			c0.639-0.352,0.899-0.851,0.781-1.567C243.426,75.084,243.452,74.881,243.452,74.607z"/>
		<path fill-rule="evenodd" clip-rule="evenodd" fill="#6F6E5F" d="M148.028,77.678c-0.876,0.84-1.983,1.269-3.263,1.224
			c-1.95-0.07-3.136-1.693-2.524-3.446c0.248-0.708,0.782-1.141,1.417-1.471c1.124-0.584,2.337-0.786,3.587-0.823
			c0.215-0.007,0.43-0.001,0.651-0.001c0-0.377,0.028-0.696-0.005-1.008c-0.113-1.071-0.777-1.623-1.842-1.472
			c-0.444,0.062-0.891,0.228-1.293,0.431c-1.29,0.653-1.466,0.608-2.183-0.778c1.241-1.156,2.729-1.67,4.411-1.534
			c2.065,0.168,3.251,1.568,3.275,3.775c0.016,1.417,0.003,2.834,0.003,4.238c1.271,0.411,1.271,0.411,1.169,1.882
			c-0.88,0-1.776,0.074-2.646-0.044C148.512,78.614,148.31,78.059,148.028,77.678z M147.931,74.44
			c-1.023,0.235-1.944,0.377-2.814,0.669c-0.721,0.242-0.949,1.023-0.6,1.616c0.266,0.45,1.015,0.681,1.791,0.463
			c0.682-0.191,1.404-0.434,1.605-1.225C148.017,75.556,147.931,75.1,147.931,74.44z"/>
		<path fill-rule="evenodd" clip-rule="evenodd" fill="#6F6E5F" d="M280.861,74.206c0.01,2.168,1.7,3.376,3.67,2.678
			c0.336-0.119,0.654-0.289,0.977-0.447c0.716-0.351,0.848-0.324,1.361,0.306c0.139,0.17,0.271,0.345,0.422,0.538
			c-0.975,1.194-2.301,1.551-3.725,1.613c-2.193,0.096-3.881-0.834-4.615-2.644c-0.849-2.091-0.827-4.171,0.726-5.962
			c1.881-2.17,5.665-1.91,7.062,0.423c0.508,0.849,0.671,1.78,0.641,2.757c-0.016,0.521-0.255,0.733-0.789,0.728
			c-1.778-0.021-3.558-0.008-5.336-0.007C281.138,74.188,281.021,74.199,280.861,74.206z M280.927,72.676c1.466,0,2.885,0,4.31,0
			c-0.177-1.453-0.854-2.134-2.075-2.135C281.921,70.541,281.087,71.328,280.927,72.676z"/>
		<path fill-rule="evenodd" clip-rule="evenodd" fill="#6F6E5F" d="M212.434,74.188c0.021,2.23,1.719,3.417,3.723,2.679
			c0.336-0.123,0.663-0.282,0.971-0.464c0.531-0.312,0.94-0.223,1.274,0.293c0.128,0.199,0.286,0.378,0.464,0.61
			c-0.202,0.19-0.375,0.378-0.572,0.537c-1.916,1.545-5.213,1.391-6.903-0.275c-1.9-1.871-2.074-6.543,0.94-8.165
			c1.76-0.947,4.121-0.72,5.408,0.587c0.996,1.012,1.271,2.271,1.185,3.643c-0.03,0.491-0.356,0.559-0.754,0.558
			c-1.68-0.005-3.359-0.002-5.039-0.002C212.913,74.188,212.696,74.188,212.434,74.188z M216.759,72.701
			c-0.001-1.292-0.724-2.098-1.885-2.16c-1.316-0.07-2.202,0.722-2.386,2.16C213.899,72.701,215.307,72.701,216.759,72.701z"/>
		<path fill-rule="evenodd" clip-rule="evenodd" fill="#6F6E5F" d="M133.77,74.188c-0.101,2.046,1.587,3.339,3.509,2.743
			c0.359-0.111,0.704-0.278,1.042-0.448c0.812-0.407,0.901-0.396,1.457,0.287c0.137,0.168,0.264,0.345,0.391,0.514
			c-1.265,1.447-3.792,2.036-5.759,1.357c-1.777-0.613-2.985-2.271-3.047-4.388c-0.025-0.839,0.063-1.734,0.338-2.521
			c1.072-3.066,5.283-3.955,7.476-1.61c0.916,0.979,1.157,2.197,1.071,3.501c-0.032,0.485-0.343,0.568-0.745,0.567
			c-1.679-0.005-3.357-0.002-5.036-0.002C134.247,74.188,134.029,74.188,133.77,74.188z M138.123,72.698
			c-0.184-1.548-0.985-2.271-2.307-2.154c-1.143,0.102-1.992,1.032-1.948,2.154C135.272,72.698,136.678,72.698,138.123,72.698z"/>
		<path fill-rule="evenodd" clip-rule="evenodd" fill="#6F6E5F" d="M153.045,64.643c1.21,0,2.425,0,3.715,0
			c0,4.056,0,8.116,0,12.157c1.59,0.403,1.59,0.403,1.413,1.945c-1.703,0-3.411,0-5.118,0c-0.318-1.382-0.167-1.608,1.306-1.91
			c0.016-0.122,0.048-0.256,0.048-0.39c0.003-3.136,0.002-6.272,0.004-9.408c0-0.265,0.026-0.493-0.341-0.581
			C152.88,66.169,152.792,65.993,153.045,64.643z"/>
		<path fill-rule="evenodd" clip-rule="evenodd" fill="#6F6E5F" d="M188.32,72.541c-0.139,0.009-0.217,0.017-0.295,0.019
			c-1.145,0.019-1.161,0.021-1.289-1.118c-0.052-0.462-0.203-0.672-0.708-0.745c-1.535-0.223-2.591,0.432-2.926,1.942
			c-0.219,0.989-0.213,1.982,0.164,2.941c0.549,1.396,2.032,1.923,3.349,1.196c0.191-0.105,0.372-0.233,0.549-0.363
			c0.41-0.305,0.765-0.288,1.07,0.152c0.171,0.244,0.359,0.477,0.557,0.737c-1.426,1.534-3.188,1.921-5.102,1.408
			c-1.858-0.499-2.828-1.914-3.034-3.762c-0.108-0.97-0.084-2.019,0.17-2.953c0.675-2.487,3.095-3.654,5.892-2.982
			c1.681,0.403,1.685,0.404,1.668,2.113C188.381,71.584,188.345,72.04,188.32,72.541z"/>
		<path fill-rule="evenodd" clip-rule="evenodd" fill="#6F6E5F" d="M257.455,69.333c0.579-0.105,1.085-0.196,1.608-0.291
			c0.143-0.762,0.316-1.5,0.409-2.249c0.074-0.594,0.343-0.858,0.937-0.818c0.278,0.019,0.558,0.004,0.911,0.004
			c0,1.031,0,2.037,0,3.093c0.887,0,1.699,0,2.546,0c0,0.578,0,1.106,0,1.699c-0.819,0-1.629,0-2.519,0c0,0.475,0,0.887,0,1.299
			c0,1.279-0.007,2.56,0.002,3.839c0.006,0.958,0.55,1.327,1.4,0.909c0.436-0.214,0.656-0.103,0.86,0.282
			c0.166,0.313,0.368,0.607,0.572,0.938c-1.129,0.821-2.336,1.12-3.644,0.713c-0.949-0.296-1.496-1.029-1.538-2.012
			c-0.068-1.637-0.051-3.276-0.068-4.915c-0.003-0.317,0-0.636,0-0.931c-0.477-0.108-1.028-0.08-1.3-0.343
			C257.405,70.331,257.504,69.773,257.455,69.333z"/>
		<path fill-rule="evenodd" clip-rule="evenodd" fill="#6F6E5F" d="M161.059,70.845c-1.503-0.208-1.503-0.208-1.404-1.523
			c0.483-0.089,0.984-0.181,1.52-0.278c0.147-0.78,0.323-1.557,0.432-2.343c0.078-0.558,0.373-0.747,0.89-0.725
			c0.296,0.013,0.592,0.003,0.938,0.003c0,1.037,0,2.028,0,3.07c0.858,0,1.669,0,2.522,0c0,0.595,0,1.138,0,1.722
			c-0.808,0-1.601,0-2.45,0c-0.017,0.203-0.043,0.372-0.043,0.542c-0.003,1.52-0.005,3.04-0.001,4.56
			c0.003,1.005,0.519,1.359,1.42,0.936c0.406-0.19,0.63-0.091,0.828,0.265c0.174,0.312,0.366,0.614,0.547,0.915
			c-1.002,0.979-2.954,1.241-4.085,0.546c-0.745-0.458-1.072-1.179-1.087-2.021c-0.029-1.659-0.021-3.319-0.028-4.979
			C161.058,71.314,161.059,71.097,161.059,70.845z"/>
		<path fill-rule="evenodd" clip-rule="evenodd" fill="#6F6E5F" d="M253.704,78.757c-1.73,0-3.424,0-5.117,0
			c-0.351-1.314-0.166-1.594,1.302-1.921c0-1.957,0-3.924,0-5.889c-1.521-0.479-1.567-0.546-1.319-1.964
			c0.961,0,1.936-0.033,2.905,0.027c0.197,0.012,0.441,0.349,0.54,0.587c0.119,0.284,0.105,0.624,0.156,0.992
			c0.31-0.355,0.566-0.701,0.874-0.993c0.771-0.732,1.682-0.944,2.712-0.663c0.308,0.085,0.436,0.25,0.36,0.564
			c-0.023,0.098-0.03,0.198-0.053,0.295c-0.105,0.441-0.083,1.02-0.36,1.28c-0.227,0.213-0.81,0.048-1.234,0.046
			c-1.229-0.005-2.168,0.919-2.168,2.138c0,1.14,0.005,2.279,0.009,3.419c0,0.037,0.021,0.075,0.033,0.112
			C253.825,77.307,253.825,77.307,253.704,78.757z"/>
		<path fill-rule="evenodd" clip-rule="evenodd" fill="#6F6E5F" d="M201.004,78.741c-0.228-1.407-0.162-1.501,1.349-1.933
			c0-1.945,0-3.898,0-5.82c-0.443-0.18-1.023-0.24-1.258-0.557c-0.241-0.327-0.145-0.902-0.205-1.446
			c1.086,0,2.08-0.033,3.068,0.028c0.192,0.012,0.427,0.36,0.524,0.602c0.115,0.283,0.103,0.618,0.148,0.954
			c0.366-0.396,0.671-0.791,1.041-1.112c0.713-0.619,1.556-0.77,2.469-0.552c0.367,0.087,0.542,0.277,0.435,0.683
			c-0.092,0.346-0.165,0.702-0.196,1.058c-0.048,0.549-0.329,0.647-0.819,0.55c-1.279-0.255-2.108,0.152-2.663,1.274
			c-0.061,0.122-0.128,0.26-0.129,0.391c-0.01,1.316-0.006,2.633-0.006,3.937c1.518,0.434,1.518,0.434,1.407,1.944
			C204.448,78.741,202.725,78.741,201.004,78.741z"/>
		<path fill-rule="evenodd" clip-rule="evenodd" fill="#6F6E5F" d="M292.702,76.808c1.51,0.414,1.605,0.556,1.326,1.946
			c-1.685,0-3.375,0-5.063,0c-0.321-1.393-0.2-1.577,1.291-1.919c0-1.955,0-3.922,0-5.89c-1.483-0.48-1.483-0.48-1.328-1.964
			c0.963,0,1.937-0.024,2.906,0.021c0.185,0.009,0.439,0.264,0.515,0.46c0.124,0.326,0.128,0.698,0.193,1.117
			c0.31-0.347,0.576-0.681,0.878-0.977c0.729-0.715,1.61-0.922,2.596-0.711c0.371,0.079,0.643,0.246,0.449,0.7
			c-0.007,0.018-0.006,0.039-0.01,0.059c-0.095,0.468-0.045,1.083-0.327,1.358c-0.244,0.237-0.864,0.104-1.319,0.107
			c-1.194,0.009-2.105,0.918-2.106,2.118C292.701,74.413,292.702,75.592,292.702,76.808z"/>
		<path fill-rule="evenodd" clip-rule="evenodd" fill="none" d="M145.667,41.313c0-1.42-0.005-2.839,0.006-4.259
			c0.001-0.209,0.019-0.455,0.126-0.622c1.082-1.698,3.504-2.729,5.49-2.359c1.253,0.233,2.12,0.965,2.69,2.082
			c0.635,1.243,0.78,2.596,0.823,3.954c0.061,1.905-0.053,3.779-0.954,5.541c-1.649,3.221-6.142,2.957-7.991,0.703
			c-0.133-0.163-0.179-0.437-0.182-0.66C145.66,44.232,145.667,42.772,145.667,41.313z"/>
		<path fill-rule="evenodd" clip-rule="evenodd" fill="none" d="M177.959,38.472c-3.196,0-6.346,0-9.497,0
			c-0.129-2.484,2.142-4.747,4.797-4.792C176.089,33.632,177.988,35.543,177.959,38.472z"/>
		<path fill-rule="evenodd" clip-rule="evenodd" fill="none" d="M229.725,71.836c0-1.593,0-3.163,0-4.852
			c0.897,0.047,1.8,0,2.662,0.161c1.221,0.229,1.819,1.146,1.751,2.41c-0.068,1.281-0.796,2.144-2.027,2.267
			C231.342,71.898,230.56,71.836,229.725,71.836z"/>
		<path fill-rule="evenodd" clip-rule="evenodd" fill="none" d="M195.898,74.652c0,0.253-0.034,0.478,0.006,0.688
			c0.14,0.741-0.204,1.195-0.822,1.533c-0.72,0.395-1.476,0.559-2.214,0.169c-0.251-0.133-0.427-0.549-0.489-0.864
			c-0.088-0.444,0.169-0.787,0.573-1.017C193.599,74.796,194.922,74.548,195.898,74.652z"/>
		<path fill-rule="evenodd" clip-rule="evenodd" fill="none" d="M243.452,74.607c0,0.273-0.026,0.477,0.005,0.67
			c0.118,0.717-0.143,1.216-0.781,1.567c-0.718,0.396-1.468,0.588-2.22,0.227c-0.258-0.124-0.454-0.524-0.532-0.836
			c-0.11-0.438,0.1-0.821,0.517-1.043C241.363,74.705,242.358,74.594,243.452,74.607z"/>
		<path fill-rule="evenodd" clip-rule="evenodd" fill="none" d="M147.931,74.44c0,0.659,0.086,1.115-0.018,1.523
			c-0.201,0.791-0.923,1.033-1.605,1.225c-0.776,0.218-1.525-0.013-1.791-0.463c-0.349-0.593-0.121-1.374,0.6-1.616
			C145.987,74.817,146.908,74.676,147.931,74.44z"/>
		<path fill-rule="evenodd" clip-rule="evenodd" fill="none" d="M280.927,72.676c0.16-1.348,0.994-2.135,2.234-2.135
			c1.221,0.001,1.898,0.682,2.075,2.135C283.812,72.676,282.393,72.676,280.927,72.676z"/>
		<path fill-rule="evenodd" clip-rule="evenodd" fill="none" d="M216.759,72.701c-1.452,0-2.859,0-4.271,0
			c0.184-1.438,1.069-2.23,2.386-2.16C216.035,70.604,216.758,71.409,216.759,72.701z"/>
		<path fill-rule="evenodd" clip-rule="evenodd" fill="none" d="M138.123,72.698c-1.445,0-2.85,0-4.255,0
			c-0.044-1.122,0.805-2.053,1.948-2.154C137.138,70.427,137.939,71.15,138.123,72.698z"/>
	</g>
</g>
</svg>
